# xmcd
#
# Track frame offsets:
#	150
#	5002
#	21450
#	40692
#	54790
#	70835
#	89162
#	103757
#	116252
#	135055
#	148832
#	167885
#	182042
#	199600
#	220090
#	233542
#	254860
#
# Disc length: 3680 seconds
#
# Revision: 1
# Processed by: cddbd v1.5.1PL0 Copyright (c) Steve Scherf et al.
# Submitted via: CDex 1.50Beta5
#
DISCID=ed0e5e11
DTITLE=LOVE JETS - NHK教育テレビ“天才てれびくんワイド”天てれ 歌まくら〜MTK The 4th〜
DYEAR=2002
DGENRE=Soundtrack
TTITLE0=LOVE JETS/青い星(TVバージョン)
TTITLE1=ハッスル3/君のそばにいたい I only want to be with you
TTITLE2=バースデイ・ガール/本当は何になりたいんだろう
TTITLE3=アップル・シェイク/元気を出して Gotta Pull Myself Together
TTITLE4=熊木翔/きれいな水
TTITLE5=俵有希子/本日晴天
TTITLE6=ホリデーズ/VACATION
TTITLE7=ノーティー・ハリー/花のランランパワー
TTITLE8=ダーブロウ有紗/BIG SMILE BABIES
TTITLE9=角田信朗/Jump In The Line
TTITLE10=モニーク・ローズ/Be My Friend
TTITLE11=山川恵里佳/クレマチス
TTITLE12=3サイズwithコバンザメ/Material Girl
TTITLE13=TIMKY/空になりたい
TTITLE14=ヤマチーズ/Dynamite
TTITLE15=てれび戦士 2002/LOVE IS POP(フルバージョン)
TTITLE16=てれび戦士 2002/LOVE IS POP(フルバージョン)<オリジナル・カラオケ>
EXTD=
EXTT0=
EXTT1=
EXTT2=
EXTT3=
EXTT4=
EXTT5=
EXTT6=
EXTT7=
EXTT8=
EXTT9=
EXTT10=
EXTT11=
EXTT12=
EXTT13=
EXTT14=
EXTT15=
EXTT16=
PLAYORDER=
